name C:\Users\u0101727\Documents\MyRepositories\upper-imu-dc\Results\main_tracking\Case_47\kinematics.mot
datacolumns 10
datarows 42
range 0.50000000 0.91000000
endheader 
time	clav_prot	clav_elev	scapula_abduction	scapula_elevation	scapula_upward_rot	scapula_winging	plane_elv	shoulder_elv	axial_rot	
          0.50000000	        -23.49714918	         -5.82903069	        -13.49981433	         -5.17390328	         12.87023647	          5.95902011	        -33.47741007	         15.22619010	         58.58125247	
          0.51000000	        -23.31558220	         -5.77984101	        -13.47003091	         -5.18683722	         12.90182802	          5.95363867	        -33.52883599	         15.25418715	         58.46622436	
          0.52000000	        -23.31515103	         -5.78553104	        -13.44947123	         -5.19954129	         12.93384741	          5.94800935	        -33.58006190	         15.28338525	         58.34985440	
          0.53000000	        -23.31196414	         -5.79178116	        -13.42430709	         -5.21237572	         12.96538191	          5.94264259	        -33.63074852	         15.31256270	         58.22987458	
          0.54000000	        -23.30685656	         -5.79874659	        -13.39628332	         -5.22535696	         12.99583814	          5.93775938	        -33.68041753	         15.34164398	         58.10337678	
          0.55000000	        -23.30037903	         -5.80644562	        -13.36657593	         -5.23842940	         13.02481668	          5.93347609	        -33.72842436	         15.37089355	         57.96707556	
          0.56000000	        -23.29305075	         -5.81485687	        -13.33623975	         -5.25153959	         13.05205052	          5.92986178	        -33.77400829	         15.40066905	         57.81765591	
          0.57000000	        -23.28530698	         -5.82394928	        -13.30612474	         -5.26464983	         13.07738132	          5.92695392	        -33.81634482	         15.43132065	         57.65213552	
          0.58000000	        -23.27751930	         -5.83368431	        -13.27691897	         -5.27773705	         13.10074413	          5.92476339	        -33.85459978	         15.46313983	         57.46819963	
          0.59000000	        -23.27001938	         -5.84400938	        -13.24919696	         -5.29078649	         13.12215696	          5.92327513	        -33.88796964	         15.49632564	         57.26445724	
          0.60000000	        -23.26310100	         -5.85485713	        -13.22342738	         -5.30378930	         13.14171373	          5.92244957	        -33.91570088	         15.53096446	         57.04058330	
          0.61000000	        -23.25699176	         -5.86614992	        -13.19992989	         -5.31674129	         13.15957251	          5.92222625	        -33.93708651	         15.56701923	         56.79732500	
          0.62000000	        -23.25181955	         -5.87781009	        -13.17882692	         -5.32964334	         13.17593504	          5.92253165	        -33.95144054	         15.60433300	         56.53637019	
          0.63000000	        -23.24762173	         -5.88976846	        -13.16007235	         -5.34250186	         13.19102106	          5.92328860	        -33.95805365	         15.64264818	         56.26009460	
          0.64000000	        -23.24442698	         -5.90196693	        -13.14360212	         -5.35533131	         13.20505059	          5.92442373	        -33.95613470	         15.68163758	         55.97123045	
          0.65000000	        -23.24233547	         -5.91436112	        -13.12946979	         -5.36816186	         13.21824718	          5.92586984	        -33.94474803	         15.72093754	         55.67252422	
          0.66000000	        -23.24151832	         -5.92692577	        -13.11783589	         -5.38104739	         13.23085254	          5.92756448	        -33.92275965	         15.76017442	         55.36645643	
          0.67000000	        -23.24214410	         -5.93966125	        -13.10883427	         -5.39406850	         13.24313624	          5.92944816	        -33.88880062	         15.79898162	         55.05507078	
          0.68000000	        -23.24428861	         -5.95259671	        -13.10242049	         -5.40732739	         13.25538802	          5.93146482	        -33.84125092	         15.83700576	         54.73991846	
          0.69000000	        -23.24788864	         -5.96578571	        -13.09830587	         -5.42093605	         13.26789611	          5.93356424	        -33.77824479	         15.87390555	         54.42209133	
          0.70000000	        -23.25274592	         -5.97929654	        -13.09598144	         -5.43500243	         13.28092164	          5.93570466	        -33.69769840	         15.90934557	         54.10231188	
          0.71000000	        -23.25855485	         -5.99320044	        -13.09478084	         -5.44961756	         13.29467741	          5.93785428	        -33.59735811	         15.94298817	         53.78105251	
          0.72000000	        -23.26493679	         -6.00756005	        -13.09395086	         -5.46484488	         13.30931271	          5.93999160	        -33.47486469	         15.97448543	         53.45866155	
          0.73000000	        -23.27149246	         -6.02241846	        -13.09274900	         -5.48071288	         13.32490516	          5.94210467	        -33.32782615	         16.00347143	         53.13547222	
          0.74000000	        -23.27785964	         -6.03779058	        -13.09054359	         -5.49721263	         13.34146283	          5.94418874	        -33.15388912	         16.02955756	         52.81187094	
          0.75000000	        -23.28373497	         -6.05365950	        -13.08684585	         -5.51429911	         13.35893500	          5.94624282	        -32.95080116	         16.05233301	         52.48830283	
          0.76000000	        -23.28884978	         -6.06997841	        -13.08126175	         -5.53189393	         13.37722269	          5.94826690	        -32.71645961	         16.07137424	         52.16519159	
          0.77000000	        -23.29294450	         -6.08667362	        -13.07344483	         -5.54988725	         13.39618288	          5.95026134	        -32.44894496	         16.08626714	         51.84275864	
          0.78000000	        -23.29580539	         -6.10364451	        -13.06315800	         -5.56814063	         13.41563087	          5.95222694	        -32.14654137	         16.09664041	         51.52076684	
          0.79000000	        -23.29738291	         -6.12075939	        -13.05046925	         -5.58649507	         13.43535552	          5.95416270	        -31.80775418	         16.10219962	         51.19827050	
          0.80000000	        -23.29793863	         -6.13785234	        -13.03598076	         -5.60478840	         13.45516116	          5.95605841	        -31.43133455	         16.10274920	         50.87347353	
          0.81000000	        -23.29810932	         -6.15472939	        -13.02089842	         -5.62288128	         13.47493470	          5.95788271	        -31.01631189	         16.09819560	         50.54374422	
          0.82000000	        -23.29884741	         -6.17118572	        -13.00688388	         -5.64068509	         13.49471678	          5.95957158	        -30.56202230	         16.08853864	         50.20574561	
          0.83000000	        -23.30127238	         -6.18702836	        -12.99576388	         -5.65818314	         13.51475259	          5.96102106	        -30.06812003	         16.07386441	         49.85559412	
          0.84000000	        -23.30650115	         -6.20209724	        -12.98922361	         -5.67544077	         13.53550841	          5.96208686	        -29.53456608	         16.05434758	         49.48898610	
          0.85000000	        -23.31550652	         -6.21627932	        -12.98857022	         -5.69260271	         13.55765365	          5.96258981	        -28.96159930	         16.03026185	         49.10129365	
          0.86000000	        -23.32903149	         -6.22951484	        -12.99460936	         -5.70988122	         13.58201669	          5.96232584	        -28.34970092	         16.00199015	         48.68766948	
          0.87000000	        -23.34755978	         -6.24179711	        -13.00762799	         -5.72753911	         13.60952706	          5.96107850	        -27.69955638	         15.97002544	         48.24319301	
          0.88000000	        -23.37131508	         -6.25316985	        -13.02742785	         -5.74587235	         13.64115646	          5.95863183	        -27.01201277	         15.93496053	         47.76306092	
          0.89000000	        -23.40023063	         -6.26372580	        -13.05330474	         -5.76519307	         13.67786481	          5.95478235	        -26.28803235	         15.89747089	         47.24279826	
          0.90000000	        -23.43388386	         -6.27360292	        -13.08396730	         -5.78580908	         13.72054824	          5.94934973	        -25.52864802	         15.85829758	         46.67845548	
          0.91000000	        -23.47149859	         -6.28296955	        -13.11757507	         -5.80799879	         13.76998667	          5.94218561	        -24.73491855	         15.81823686	         46.06675812	
